<svg width="95" height="20" viewBox="0 0 95 20" fill="none" xmlns="http://www.w3.org/2000/svg">
<path d="M39.9122 3.28968H46.1525V17.7665H42.8464V13.9198H39.7882L37.226 17.7665H33.6925L36.7094 13.4028C34.767 12.6169 33.6719 10.9624 33.6719 8.68745C33.6719 5.31643 36.0895 3.28968 39.9122 3.28968ZM39.9948 6.01959C38.0938 6.01959 37.0607 6.90888 37.0607 8.64609C37.0607 10.3213 38.0318 11.2726 39.9122 11.2726H42.8464V6.01959H39.9948Z" fill="#110631"/>
<path d="M55.7893 3.14491C59.8393 3.14491 62.2363 5.2337 62.2363 8.81154C62.2363 12.2032 60.0873 14.2507 56.3886 14.2507C55.1901 14.2507 54.1156 14.0232 52.7725 13.4441V17.7665H49.4664V9.20448C49.4664 5.31643 51.6773 3.14491 55.7893 3.14491ZM55.81 11.7276C57.7523 11.7276 58.8682 10.6935 58.8682 8.87358C58.8682 7.03296 57.7523 5.95754 55.872 5.95754C53.909 5.95754 52.7725 7.13637 52.7725 9.1838V10.7969C53.599 11.376 54.6942 11.7276 55.81 11.7276Z" fill="#110631"/>
<path d="M74.2134 3.28968H77.5608V13.2373C77.5608 17.6424 74.9366 20 70.7213 20C68.2004 20 66.1547 19.2555 64.7496 18.056L66.0514 15.5743C67.3532 16.629 68.9236 17.1667 70.6386 17.1667C73.0356 17.1667 74.2134 15.9879 74.2134 13.4028V12.5135C73.2422 13.713 71.8371 14.292 70.1221 14.292C66.4853 14.292 64.419 12.1619 64.419 8.23247V3.28968H67.7664V8.02566C67.7664 10.3213 68.9236 11.4587 70.8453 11.4587C72.8083 11.4587 74.2134 10.3626 74.2134 7.79816V3.28968Z" fill="#110631"/>
<path d="M87.7924 18.0146C83.3085 18.0146 79.961 14.8918 79.961 10.5281C79.961 6.16435 83.3085 3.0415 87.813 3.0415C90.3133 3.0415 92.4003 3.95147 93.7641 5.60597L91.6151 7.59135C90.6439 6.47457 89.4248 5.8955 87.9784 5.8955C85.2715 5.8955 83.3498 7.79816 83.3498 10.5281C83.3498 13.258 85.2715 15.1606 87.9784 15.1606C89.4248 15.1606 90.6439 14.5816 91.6151 13.4441L93.7641 15.4295C92.4003 17.1047 90.3133 18.0146 87.7924 18.0146Z" fill="#110631"/>
<path fill-rule="evenodd" clip-rule="evenodd" d="M4.00928 5.62207C1.79505 5.62207 6.10352e-05 7.41705 6.10352e-05 9.63128V17.7572H8.0185V9.63129C8.0185 7.41706 6.22351 5.62207 4.00928 5.62207ZM4.00871 10.9984C4.79769 10.9984 5.43729 10.3588 5.43729 9.56983C5.43729 8.78085 4.79769 8.14126 4.00871 8.14126C3.21973 8.14126 2.58014 8.78085 2.58014 9.56983C2.58014 10.3588 3.21973 10.9984 4.00871 10.9984Z" fill="#D5542A"/>
<path fill-rule="evenodd" clip-rule="evenodd" d="M24.5932 4.57764C22.379 4.57764 20.584 6.37262 20.584 8.58685V17.7267H28.6024V8.58685C28.6024 6.37262 26.8074 4.57764 24.5932 4.57764ZM24.5946 9.95403C25.3836 9.95403 26.0232 9.31444 26.0232 8.52546C26.0232 7.73648 25.3836 7.09689 24.5946 7.09689C23.8056 7.09689 23.166 7.73648 23.166 8.52546C23.166 9.31444 23.8056 9.95403 24.5946 9.95403Z" fill="#60B69C"/>
<path fill-rule="evenodd" clip-rule="evenodd" d="M14.3002 0C12.086 0 10.291 1.79499 10.291 4.00922V17.7573H18.3095V4.00922C18.3095 1.79499 16.5145 0 14.3002 0ZM14.2997 5.37632C15.0886 5.37632 15.7282 4.73673 15.7282 3.94775C15.7282 3.15877 15.0886 2.51918 14.2997 2.51918C13.5107 2.51918 12.8711 3.15877 12.8711 3.94775C12.8711 4.73673 13.5107 5.37632 14.2997 5.37632Z" fill="#B4BF4F"/>
</svg>
